<?xml version="1.0" encoding="utf-8"?><!-- Uploaded to: SVG Repo, www.svgrepo.com, Generator: SVG Repo Mixer Tools -->
<svg fill="#000000" width="24px" height="24px" viewBox="0 0 24 24" id="maps-location-place-right" data-name="Flat Color" xmlns="http://www.w3.org/2000/svg" class="icon flat-color">
    <path id="primary" d="M9.44,16l3-8H20a2,2,0,0,1,2,2v6ZM2,18v2a2,2,0,0,0,2,2H14V18Z" style="fill: #000"></path>
    <path id="secondary" d="M7.31,16H2V10A2,2,0,0,1,4,8h6.31ZM16,22h4a2,2,0,0,0,2-2V18H16ZM11,6.5c0,3.91,3.69,7.13,3.85,7.27a1,1,0,0,0,1.3,0C16.31,13.63,20,10.41,20,6.5a4.5,4.5,0,0,0-9,0Z" style="fill: #000"></path>
</svg>