<?xml version="1.0" standalone="no"?>
<!DOCTYPE svg PUBLIC "-//W3C//DTD SVG 20010904//EN"
 "http://www.w3.org/TR/2001/REC-SVG-20010904/DTD/svg10.dtd">
<svg version="1.0" xmlns="http://www.w3.org/2000/svg"
 width="700.000000pt" height="700.000000pt" viewBox="0 0 700.000000 700.000000"
 preserveAspectRatio="xMidYMid meet">
<metadata>
Created by potrace 1.14, written by Peter Selinger 2001-2017
</metadata>
<g transform="translate(0.000000,700.000000) scale(0.100000,-0.100000)"
fill="#000000" stroke="none">
<path d="M3298 6996 c-1 -2 -41 -6 -88 -10 -260 -19 -547 -78 -810 -166 -96
-32 -193 -66 -215 -76 -22 -10 -42 -18 -45 -19 -32 -9 -256 -118 -355 -173
-87 -47 -192 -113 -267 -167 -31 -22 -66 -47 -78 -55 -42 -28 -185 -143 -255
-205 -668 -591 -1092 -1426 -1172 -2310 -10 -105 -9 -529 0 -625 20 -187 46
-345 88 -520 164 -683 542 -1312 1069 -1779 128 -113 139 -122 220 -182 338
-249 670 -421 1052 -544 77 -25 149 -47 161 -49 12 -2 60 -13 107 -24 102 -25
166 -37 290 -57 47 -7 128 -16 222 -24 95 -9 552 -6 598 3 14 3 50 7 80 10 30
3 64 8 75 10 11 2 42 7 70 10 27 4 83 14 125 22 41 8 86 17 100 20 125 24 456
130 567 180 28 13 54 24 57 24 3 0 54 23 113 51 502 240 952 607 1279 1044 62
82 194 273 194 279 0 2 18 34 40 71 157 257 315 649 386 958 2 9 6 27 10 40 3
12 7 33 10 47 2 14 7 36 10 50 3 14 8 39 10 55 2 17 6 40 8 52 27 136 41 313
41 548 0 314 -17 473 -81 781 -52 253 -188 622 -321 872 -228 430 -584 853
-943 1121 -41 31 -77 59 -80 62 -12 16 -255 172 -350 226 -114 64 -261 137
-362 178 -35 14 -72 30 -83 34 -189 79 -494 163 -715 197 -25 3 -52 8 -60 9
-8 2 -44 6 -80 10 -36 4 -81 10 -100 12 -42 5 -517 13 -522 9z"/>
</g>
</svg>
